<svg xmlns="http://www.w3.org/2000/svg" width="600" height="600" font-family="serif" text-anchor="middle"><text font-size="150" transform="translate(186,230) rotate(-3.3333521664465877)" padding="2px" fill="#00f21a">the</text><text font-size="129" transform="translate(279,361) rotate(17.926463547958875)" padding="2px" fill="#f2002c">to</text><text font-size="117" transform="translate(303,435) rotate(5.494667202742463)" padding="2px" fill="#0073f2">and</text><text font-size="87" transform="translate(209,320) rotate(-7.318062768681752)" padding="2px" fill="#b9f200">of</text><text font-size="67" transform="translate(183,143) rotate(-9.39570572474338)" padding="2px" fill="#e300f2">in</text><text font-size="59" transform="translate(355,192) rotate(2.358534893443558)" padding="2px" fill="#00f29d">i</text><text font-size="56" transform="translate(378,346) rotate(14.098935555520654)" padding="2px" fill="#f25600">our</text><text font-size="53" transform="translate(198,268) rotate(-19.418066318989673)" padding="2px" fill="#0f00f2">a</text><text font-size="48" transform="translate(433,399) rotate(-8.502199350090969)" padding="2px" fill="#36f200">for</text><text font-size="42" transform="translate(410,204) rotate(16.145304096343637)" padding="2px" fill="#f2007d">this</text><text font-size="40" transform="translate(182,417) rotate(-2.588449685223786)" padding="2px" fill="#00c4f2">is</text><text font-size="37" transform="translate(440,433) rotate(19.197628254060596)" padding="2px" fill="#f2d900">we</text><text font-size="35" transform="translate(323,294) rotate(-2.298431899979427)" padding="2px" fill="#9200f2">with</text><text font-size="35" transform="translate(384,473) rotate(-7.554546516494316)" padding="2px" fill="#00f24c">their</text><text font-size="35" transform="translate(317,264) rotate(7.282045194180569)" padding="2px" fill="#f20500">as</text><text font-size="34" transform="translate(329,235) rotate(0.0397986450851846)" padding="2px" fill="#0041f2">will</text><text font-size="34" transform="translate(170,345) rotate(5.6367041689309545)" padding="2px" fill="#87f200">protect</text><text font-size="34" transform="translate(382,294) rotate(-9.8057918730606)" padding="2px" fill="#f200ce">are</text><text font-size="34" transform="translate(345,149) rotate(-14.914899959257237)" padding="2px" fill="#00f2cf">you</text><text font-size="31" transform="translate(314,459) rotate(18.619454328395683)" padding="2px" fill="#f28800">that</text><text font-size="31" transform="translate(461,347) rotate(17.530194065794547)" padding="2px" fill="#4100f2">union</text><text font-size="31" transform="translate(142,269) rotate(-9.5225941374314)" padding="2px" fill="#04f200">today</text><text font-size="31" transform="translate(433,238) rotate(-5.9991745157468035)" padding="2px" fill="#f2004b">it</text><text font-size="31" transform="translate(239,452) rotate(-3.470318552651044)" padding="2px" fill="#0092f2">on</text><text font-size="31" transform="translate(434,168) rotate(-15.29144200595927)" padding="2px" fill="#d8f200">my</text><text font-size="31" transform="translate(242,138) rotate(-10.98787161943795)" padding="2px" fill="#c500f2">nato</text><text font-size="29" transform="translate(267,108) rotate(-7.417032885712764)" padding="2px" fill="#00f27e">american</text><text font-size="29" transform="translate(320,80) rotate(4.0898892846954205)" padding="2px" fill="#f23700">workers</text><text font-size="29" transform="translate(365,369) rotate(-16.263938597222207)" padding="2px" fill="#000ff2">an</text><text font-size="29" transform="translate(420,311) rotate(-6.744700203359164)" padding="2px" fill="#55f200">day</text><text font-size="28" transform="translate(448,284) rotate(-13.60501565374042)" padding="2px" fill="#f2009c">have</text><text font-size="28" transform="translate(270,252) rotate(-10.354880066415735)" padding="2px" fill="#00e3f2">they</text><text font-size="28" transform="translate(380,256) rotate(-10.138186620713263)" padding="2px" fill="#f2ba00">nation</text><text font-size="28" transform="translate(291,231) rotate(2.8525141049268115)" padding="2px" fill="#7400f2">–</text><text font-size="28" transform="translate(277,480) rotate(-5.81969753626252)" padding="2px" fill="#00f22d">your</text><text font-size="26" transform="translate(466,321) rotate(10.212807838997982)" padding="2px" fill="#f20019">who</text><text font-size="26" transform="translate(397,502) rotate(-12.053100294300148)" padding="2px" fill="#0060f2">special</text><text font-size="26" transform="translate(136,315) rotate(12.859535846942201)" padding="2px" fill="#a6f200">years</text><text font-size="26" transform="translate(435,366) rotate(-11.084252118681421)" padding="2px" fill="#f200ed">be</text><text font-size="26" transform="translate(425,142) rotate(-8.34849990374714)" padding="2px" fill="#00f2b0">america</text><text font-size="26" transform="translate(316,202) rotate(-11.339301129657438)" padding="2px" fill="#f26900">more</text><text font-size="26" transform="translate(163,368) rotate(6.864189320628604)" padding="2px" fill="#2300f2">than</text><text font-size="26" transform="translate(108,119) rotate(-0.3795772591779567)" padding="2px" fill="#23f200">honor</text><text font-size="26" transform="translate(391,125) rotate(-19.51655467243402)" padding="2px" fill="#f2006a">has</text><text font-size="26" transform="translate(447,110) rotate(-11.54435499399832)" padding="2px" fill="#00b1f2">make</text><text font-size="26" transform="translate(490,396) rotate(-0.3689227877302059)" padding="2px" fill="#f2ec00">every</text><text font-size="26" transform="translate(486,300) rotate(-17.78251041547626)" padding="2px" fill="#a600f2">at</text><text font-size="26" transform="translate(325,499) rotate(3.5222143883851516)" padding="2px" fill="#00f25f">care</text><text font-size="25" transform="translate(76,289) rotate(-10.67024404077686)" padding="2px" fill="#f21800">we’re</text><text font-size="25" transform="translate(158,437) rotate(11.423098522125432)" padding="2px" fill="#002df2">financial</text></svg>